<?xml version="1.0" encoding="iso-8859-1"?>
<!-- Generator: Adobe Illustrator 19.0.0, SVG Export Plug-In . SVG Version: 6.00 Build 0)  -->
<svg xmlns="http://www.w3.org/2000/svg" xmlns:xlink="http://www.w3.org/1999/xlink" version="1.1" id="Layer_1" x="0px" y="0px" viewBox="0 0 512 512" style="enable-background:new 0 0 512 512;" xml:space="preserve" width="512px" height="512px">
<g>
	<g>
		<path d="M488.727,34.376H82.844c-12.833,0-23.273,10.441-23.273,23.273v36.295H23.326C10.464,93.944,0,104.408,0,117.27v337.028    c0,12.862,10.464,23.326,23.326,23.326h405.778c12.862,0,23.326-10.464,23.326-23.326V117.27    c0-12.862-10.464-23.326-23.326-23.326H82.883l-0.04-36.242l405.831-0.052v348.737c0,6.441,5.223,11.663,11.663,11.663    S512,412.828,512,406.387V57.65C512,44.817,501.559,34.376,488.727,34.376z M429.103,117.27v337.028h0.001l-405.778,0.014    c0,0,0-0.005,0-0.015V117.27h47.817c0.03,0,0.06,0.005,0.09,0.005c0.03,0,0.059-0.005,0.09-0.005H429.103z" fill="#131516"/>
	</g>
</g>
<g>
	<g>
		<path d="M393.662,141.048H58.767c-6.441,0-11.663,5.221-11.663,11.663v228.934c0,6.441,5.221,11.663,11.663,11.663h334.895    c6.44,0,11.663-5.221,11.663-11.663V152.711C405.324,146.27,400.102,141.048,393.662,141.048z M70.43,164.374h311.569v171.684    l-59.46-59.451c-4.553-4.553-11.937-4.553-16.494,0l-36.831,36.831l-86.056-86.056c-4.554-4.554-11.938-4.553-16.494,0    L70.43,323.61V164.374z M70.43,369.982v-13.385L174.91,252.124l117.858,117.858H70.43z M382,369.982h-56.242l-40.049-40.049    l28.584-28.586l65.944,65.935c0.549,0.549,1.141,1.029,1.762,1.445V369.982z" fill="#131516"/>
	</g>
</g>
<g>
	<g>
		<path d="M268.604,181.655c-21.624,0-39.216,17.592-39.216,39.216c-0.001,21.624,17.592,39.218,39.216,39.218    c21.624,0,39.218-17.593,39.218-39.218C307.822,199.247,290.228,181.655,268.604,181.655z M268.604,236.762    c-8.762,0-15.891-7.13-15.891-15.892c-0.001-8.762,7.128-15.891,15.891-15.891c8.763,0,15.892,7.128,15.892,15.891    C284.496,229.634,277.368,236.762,268.604,236.762z" fill="#131516"/>
	</g>
</g>
<g>
</g>
<g>
</g>
<g>
</g>
<g>
</g>
<g>
</g>
<g>
</g>
<g>
</g>
<g>
</g>
<g>
</g>
<g>
</g>
<g>
</g>
<g>
</g>
<g>
</g>
<g>
</g>
<g>
</g>
</svg>
