<?xml version="1.0" encoding="iso-8859-1"?>
<!-- Generator: Adobe Illustrator 19.0.0, SVG Export Plug-In . SVG Version: 6.00 Build 0)  -->
<svg xmlns="http://www.w3.org/2000/svg" xmlns:xlink="http://www.w3.org/1999/xlink" version="1.1" id="Capa_1" x="0px" y="0px" viewBox="0 0 512 512" style="enable-background:new 0 0 512 512;" xml:space="preserve" width="512px" height="512px">
<g>
	<g>
		<path d="M492.308,0H19.692c-5.437,0-9.846,4.408-9.846,9.846v128c0,5.438,4.409,9.846,9.846,9.846h59.077    c5.437,0,9.846-4.408,9.846-9.846V88.615h98.462v334.769h-68.923c-5.437,0-9.846,4.408-9.846,9.846v68.923    c0,5.438,4.409,9.846,9.846,9.846h275.692c5.437,0,9.846-4.408,9.846-9.846v-68.923c0-5.438-4.409-9.846-9.846-9.846h-68.923    V88.615h98.462v49.231c0,5.438,4.409,9.846,9.846,9.846h59.077c5.437,0,9.846-4.408,9.846-9.846v-128    C502.154,4.408,497.745,0,492.308,0z M482.462,128h-39.385V78.769c0-5.438-4.409-9.846-9.846-9.846H315.077    c-5.437,0-9.846,4.408-9.846,9.846v344.615h-29.538c-5.437,0-9.846,4.408-9.846,9.846s4.409,9.846,9.846,9.846h39.385H384v49.231    H128v-49.231h68.923c5.437,0,9.846-4.408,9.846-9.846V88.615h29.538c5.437,0,9.846-4.408,9.846-9.846s-4.409-9.846-9.846-9.846    H78.769c-5.437,0-9.846,4.408-9.846,9.846V128H29.538V19.692h452.923V128z" fill="#131516"/>
	</g>
</g>
<g>
	<g>
		<path d="M275.495,76.849c-0.118-0.63-0.315-1.25-0.561-1.841c-0.246-0.601-0.551-1.172-0.906-1.703    c-0.353-0.542-0.767-1.044-1.221-1.497c-0.453-0.453-0.955-0.866-1.497-1.221c-0.532-0.354-1.103-0.66-1.703-0.906    c-0.591-0.246-1.21-0.433-1.84-0.561c-1.27-0.256-2.57-0.256-3.84,0c-0.63,0.128-1.25,0.315-1.851,0.561    c-0.592,0.246-1.162,0.551-1.694,0.906c-0.543,0.354-1.045,0.768-1.498,1.221c-0.453,0.453-0.866,0.955-1.221,1.497    c-0.364,0.532-0.66,1.103-0.906,1.703c-0.246,0.591-0.443,1.211-0.56,1.841c-0.129,0.63-0.197,1.28-0.197,1.92    c0,2.59,1.053,5.13,2.885,6.961c0.452,0.453,0.953,0.866,1.496,1.221c0.532,0.354,1.102,0.66,1.694,0.906    c0.601,0.246,1.221,0.443,1.851,0.561c0.63,0.128,1.28,0.197,1.92,0.197c0.639,0,1.29-0.069,1.92-0.197    c0.63-0.118,1.25-0.315,1.84-0.561c0.601-0.246,1.172-0.551,1.703-0.906c0.542-0.354,1.044-0.768,1.497-1.221    c1.832-1.831,2.886-4.372,2.886-6.961C275.692,78.129,275.623,77.479,275.495,76.849z" fill="#131516"/>
	</g>
</g>
<g>
	<g>
		<path d="M255.801,431.311c-0.118-0.63-0.315-1.25-0.561-1.841c-0.246-0.601-0.551-1.172-0.906-1.703    c-0.353-0.542-0.767-1.044-1.221-1.497c-0.453-0.453-0.955-0.866-1.497-1.221c-0.532-0.354-1.103-0.66-1.703-0.906    c-0.591-0.246-1.21-0.433-1.84-0.561c-1.269-0.256-2.569-0.256-3.839,0c-0.63,0.128-1.25,0.315-1.841,0.561    c-0.601,0.246-1.171,0.551-1.702,0.906c-0.543,0.354-1.045,0.768-1.498,1.221c-0.453,0.453-0.866,0.955-1.221,1.497    c-0.364,0.532-0.66,1.103-0.906,1.703c-0.246,0.591-0.443,1.211-0.571,1.841c-0.128,0.63-0.187,1.28-0.187,1.92    s0.059,1.29,0.186,1.92c0.128,0.63,0.325,1.25,0.571,1.841c0.246,0.601,0.542,1.172,0.906,1.703    c0.354,0.542,0.768,1.044,1.221,1.497c0.453,0.453,0.955,0.866,1.498,1.221c0.532,0.354,1.102,0.66,1.702,0.906    c0.592,0.246,1.211,0.443,1.841,0.561c0.63,0.128,1.28,0.197,1.92,0.197c0.639,0,1.29-0.069,1.92-0.197    c0.63-0.118,1.25-0.315,1.84-0.561c0.601-0.246,1.172-0.551,1.703-0.906c0.542-0.354,1.044-0.768,1.497-1.221    c0.454-0.453,0.867-0.955,1.221-1.497c0.354-0.532,0.66-1.103,0.906-1.703c0.246-0.591,0.443-1.211,0.561-1.841    c0.128-0.63,0.197-1.28,0.197-1.92S255.929,431.941,255.801,431.311z" fill="#131516"/>
	</g>
</g>
<g>
</g>
<g>
</g>
<g>
</g>
<g>
</g>
<g>
</g>
<g>
</g>
<g>
</g>
<g>
</g>
<g>
</g>
<g>
</g>
<g>
</g>
<g>
</g>
<g>
</g>
<g>
</g>
<g>
</g>
</svg>
